<mxfile host="Electron" modified="2023-06-13T02:17:03.838Z" agent="Mozilla/5.0 (Windows NT 10.0; Win64; x64) AppleWebKit/537.36 (KHTML, like Gecko) draw.io/21.3.7 Chrome/112.0.5615.204 Electron/24.5.0 Safari/537.36" etag="rjescrWNUGQBIb5jt50r" version="21.3.7" type="device">
  <diagram name="Página-1" id="qMSpR44Arh6WHb0rhWWZ">
    <mxGraphModel dx="946" dy="610" grid="1" gridSize="10" guides="1" tooltips="1" connect="1" arrows="1" fold="1" page="1" pageScale="1" pageWidth="827" pageHeight="1169" math="0" shadow="0">
      <root>
        <mxCell id="0" />
        <mxCell id="1" parent="0" />
        <mxCell id="yXqzKv2SJQ2WaFODa19P-121" style="edgeStyle=orthogonalEdgeStyle;rounded=0;orthogonalLoop=1;jettySize=auto;html=1;exitX=0.5;exitY=1;exitDx=0;exitDy=0;entryX=0.5;entryY=0;entryDx=0;entryDy=0;" edge="1" parent="1" source="yXqzKv2SJQ2WaFODa19P-115" target="yXqzKv2SJQ2WaFODa19P-119">
          <mxGeometry relative="1" as="geometry" />
        </mxCell>
        <mxCell id="yXqzKv2SJQ2WaFODa19P-115" value="" style="rounded=1;whiteSpace=wrap;html=1;strokeColor=none;fillColor=#E8E8E8;" vertex="1" parent="1">
          <mxGeometry x="370" y="111.25" width="380" height="342.5" as="geometry" />
        </mxCell>
        <mxCell id="yXqzKv2SJQ2WaFODa19P-90" style="edgeStyle=orthogonalEdgeStyle;rounded=0;orthogonalLoop=1;jettySize=auto;html=1;exitX=1;exitY=0.5;exitDx=0;exitDy=0;entryX=0;entryY=0.5;entryDx=0;entryDy=0;" edge="1" parent="1" source="yXqzKv2SJQ2WaFODa19P-1" target="yXqzKv2SJQ2WaFODa19P-15">
          <mxGeometry relative="1" as="geometry" />
        </mxCell>
        <mxCell id="yXqzKv2SJQ2WaFODa19P-1" value="Cliente" style="rounded=1;whiteSpace=wrap;html=1;horizontal=1;" vertex="1" parent="1">
          <mxGeometry x="60" y="242.5" width="50" height="40" as="geometry" />
        </mxCell>
        <mxCell id="yXqzKv2SJQ2WaFODa19P-104" style="edgeStyle=orthogonalEdgeStyle;rounded=0;orthogonalLoop=1;jettySize=auto;html=1;exitX=0;exitY=0.5;exitDx=0;exitDy=0;entryX=1;entryY=0.5;entryDx=0;entryDy=0;" edge="1" parent="1" source="yXqzKv2SJQ2WaFODa19P-12" target="yXqzKv2SJQ2WaFODa19P-100">
          <mxGeometry relative="1" as="geometry" />
        </mxCell>
        <mxCell id="yXqzKv2SJQ2WaFODa19P-107" style="edgeStyle=orthogonalEdgeStyle;rounded=0;orthogonalLoop=1;jettySize=auto;html=1;exitX=1;exitY=0.5;exitDx=0;exitDy=0;entryX=0;entryY=0.5;entryDx=0;entryDy=0;" edge="1" parent="1" source="yXqzKv2SJQ2WaFODa19P-12" target="yXqzKv2SJQ2WaFODa19P-40">
          <mxGeometry relative="1" as="geometry" />
        </mxCell>
        <mxCell id="yXqzKv2SJQ2WaFODa19P-113" style="edgeStyle=orthogonalEdgeStyle;rounded=0;orthogonalLoop=1;jettySize=auto;html=1;exitX=0.5;exitY=1;exitDx=0;exitDy=0;entryX=0.5;entryY=0;entryDx=0;entryDy=0;" edge="1" parent="1" source="yXqzKv2SJQ2WaFODa19P-12" target="yXqzKv2SJQ2WaFODa19P-37">
          <mxGeometry relative="1" as="geometry" />
        </mxCell>
        <mxCell id="yXqzKv2SJQ2WaFODa19P-12" value="Pagamento" style="rounded=1;whiteSpace=wrap;html=1;fillColor=#d5e8d4;strokeColor=#82b366;shadow=0;" vertex="1" parent="1">
          <mxGeometry x="460" y="242.5" width="120" height="40" as="geometry" />
        </mxCell>
        <mxCell id="yXqzKv2SJQ2WaFODa19P-89" style="edgeStyle=orthogonalEdgeStyle;rounded=0;orthogonalLoop=1;jettySize=auto;html=1;exitX=1;exitY=0.5;exitDx=0;exitDy=0;entryX=0;entryY=0.5;entryDx=0;entryDy=0;" edge="1" parent="1" source="yXqzKv2SJQ2WaFODa19P-15" target="yXqzKv2SJQ2WaFODa19P-42">
          <mxGeometry relative="1" as="geometry" />
        </mxCell>
        <mxCell id="yXqzKv2SJQ2WaFODa19P-15" value="Aplicação" style="rounded=1;whiteSpace=wrap;html=1;horizontal=0;" vertex="1" parent="1">
          <mxGeometry x="150" y="145" width="30" height="235" as="geometry" />
        </mxCell>
        <mxCell id="yXqzKv2SJQ2WaFODa19P-103" style="edgeStyle=orthogonalEdgeStyle;rounded=0;orthogonalLoop=1;jettySize=auto;html=1;exitX=0;exitY=0.5;exitDx=0;exitDy=0;entryX=1;entryY=0.5;entryDx=0;entryDy=0;" edge="1" parent="1" source="yXqzKv2SJQ2WaFODa19P-29" target="yXqzKv2SJQ2WaFODa19P-100">
          <mxGeometry relative="1" as="geometry" />
        </mxCell>
        <mxCell id="yXqzKv2SJQ2WaFODa19P-108" style="edgeStyle=orthogonalEdgeStyle;rounded=0;orthogonalLoop=1;jettySize=auto;html=1;exitX=1;exitY=0.5;exitDx=0;exitDy=0;entryX=0;entryY=0.5;entryDx=0;entryDy=0;" edge="1" parent="1" source="yXqzKv2SJQ2WaFODa19P-29" target="yXqzKv2SJQ2WaFODa19P-85">
          <mxGeometry relative="1" as="geometry" />
        </mxCell>
        <mxCell id="yXqzKv2SJQ2WaFODa19P-29" value="Validação Cartão" style="rounded=1;whiteSpace=wrap;html=1;fillColor=#d5e8d4;strokeColor=#82b366;shadow=0;" vertex="1" parent="1">
          <mxGeometry x="460" y="177.5" width="120" height="40" as="geometry" />
        </mxCell>
        <mxCell id="yXqzKv2SJQ2WaFODa19P-35" value="" style="group" vertex="1" connectable="0" parent="1">
          <mxGeometry x="380" y="540" width="50" height="70" as="geometry" />
        </mxCell>
        <mxCell id="yXqzKv2SJQ2WaFODa19P-33" value="" style="strokeWidth=2;html=1;shape=mxgraph.flowchart.database;whiteSpace=wrap;" vertex="1" parent="yXqzKv2SJQ2WaFODa19P-35">
          <mxGeometry x="8.333333333333334" width="33.333333333333336" height="43.75" as="geometry" />
        </mxCell>
        <mxCell id="yXqzKv2SJQ2WaFODa19P-34" value="Produtos" style="text;html=1;strokeColor=none;fillColor=none;align=center;verticalAlign=middle;whiteSpace=wrap;rounded=0;" vertex="1" parent="yXqzKv2SJQ2WaFODa19P-35">
          <mxGeometry y="43.75" width="50" height="26.25" as="geometry" />
        </mxCell>
        <mxCell id="yXqzKv2SJQ2WaFODa19P-102" style="edgeStyle=orthogonalEdgeStyle;rounded=0;orthogonalLoop=1;jettySize=auto;html=1;exitX=0;exitY=0.5;exitDx=0;exitDy=0;entryX=1;entryY=0.5;entryDx=0;entryDy=0;" edge="1" parent="1" source="yXqzKv2SJQ2WaFODa19P-37" target="yXqzKv2SJQ2WaFODa19P-100">
          <mxGeometry relative="1" as="geometry" />
        </mxCell>
        <mxCell id="yXqzKv2SJQ2WaFODa19P-114" style="edgeStyle=orthogonalEdgeStyle;rounded=0;orthogonalLoop=1;jettySize=auto;html=1;exitX=0.5;exitY=1;exitDx=0;exitDy=0;entryX=0.5;entryY=0;entryDx=0;entryDy=0;" edge="1" parent="1" source="yXqzKv2SJQ2WaFODa19P-37" target="yXqzKv2SJQ2WaFODa19P-111">
          <mxGeometry relative="1" as="geometry" />
        </mxCell>
        <mxCell id="yXqzKv2SJQ2WaFODa19P-37" value="Compra" style="rounded=1;whiteSpace=wrap;html=1;fillColor=#d5e8d4;strokeColor=#82b366;shadow=0;" vertex="1" parent="1">
          <mxGeometry x="460" y="310" width="120" height="40" as="geometry" />
        </mxCell>
        <mxCell id="yXqzKv2SJQ2WaFODa19P-110" style="edgeStyle=orthogonalEdgeStyle;rounded=0;orthogonalLoop=1;jettySize=auto;html=1;exitX=0;exitY=0.5;exitDx=0;exitDy=0;entryX=1;entryY=0.5;entryDx=0;entryDy=0;" edge="1" parent="1" source="yXqzKv2SJQ2WaFODa19P-40" target="yXqzKv2SJQ2WaFODa19P-12">
          <mxGeometry relative="1" as="geometry" />
        </mxCell>
        <mxCell id="yXqzKv2SJQ2WaFODa19P-40" value="Verificar Estoque" style="rounded=1;whiteSpace=wrap;html=1;fillColor=#dae8fc;strokeColor=#6c8ebf;shadow=0;" vertex="1" parent="1">
          <mxGeometry x="620" y="242.5" width="120" height="40" as="geometry" />
        </mxCell>
        <mxCell id="yXqzKv2SJQ2WaFODa19P-101" value="" style="edgeStyle=orthogonalEdgeStyle;rounded=0;orthogonalLoop=1;jettySize=auto;html=1;" edge="1" parent="1" source="yXqzKv2SJQ2WaFODa19P-42" target="yXqzKv2SJQ2WaFODa19P-100">
          <mxGeometry relative="1" as="geometry" />
        </mxCell>
        <mxCell id="yXqzKv2SJQ2WaFODa19P-42" value="Serviços" style="rounded=1;whiteSpace=wrap;html=1;horizontal=0;" vertex="1" parent="1">
          <mxGeometry x="210" y="145" width="30" height="235" as="geometry" />
        </mxCell>
        <mxCell id="yXqzKv2SJQ2WaFODa19P-109" style="edgeStyle=orthogonalEdgeStyle;rounded=0;orthogonalLoop=1;jettySize=auto;html=1;exitX=0;exitY=0.5;exitDx=0;exitDy=0;entryX=1;entryY=0.5;entryDx=0;entryDy=0;" edge="1" parent="1" source="yXqzKv2SJQ2WaFODa19P-85" target="yXqzKv2SJQ2WaFODa19P-29">
          <mxGeometry relative="1" as="geometry" />
        </mxCell>
        <mxCell id="yXqzKv2SJQ2WaFODa19P-85" value="Fake validação" style="rounded=1;whiteSpace=wrap;html=1;fillColor=#dae8fc;strokeColor=#6c8ebf;shadow=0;" vertex="1" parent="1">
          <mxGeometry x="620" y="177.5" width="120" height="40" as="geometry" />
        </mxCell>
        <mxCell id="yXqzKv2SJQ2WaFODa19P-111" value="Estoque" style="rounded=1;whiteSpace=wrap;html=1;fillColor=#d5e8d4;strokeColor=#82b366;shadow=0;" vertex="1" parent="1">
          <mxGeometry x="460" y="380" width="120" height="40" as="geometry" />
        </mxCell>
        <mxCell id="yXqzKv2SJQ2WaFODa19P-116" value="Microserviços" style="text;html=1;strokeColor=none;fillColor=none;align=center;verticalAlign=middle;whiteSpace=wrap;rounded=0;fontStyle=1" vertex="1" parent="1">
          <mxGeometry x="530" y="120" width="60" height="30" as="geometry" />
        </mxCell>
        <mxCell id="yXqzKv2SJQ2WaFODa19P-100" value="RabbitMQ" style="rounded=1;whiteSpace=wrap;html=1;horizontal=0;container=0;" vertex="1" parent="1">
          <mxGeometry x="290" y="145" width="30" height="235" as="geometry" />
        </mxCell>
        <mxCell id="yXqzKv2SJQ2WaFODa19P-120" style="edgeStyle=orthogonalEdgeStyle;rounded=0;orthogonalLoop=1;jettySize=auto;html=1;exitX=0.5;exitY=1;exitDx=0;exitDy=0;entryX=0.5;entryY=0;entryDx=0;entryDy=0;entryPerimeter=0;" edge="1" parent="1" source="yXqzKv2SJQ2WaFODa19P-119" target="yXqzKv2SJQ2WaFODa19P-33">
          <mxGeometry relative="1" as="geometry" />
        </mxCell>
        <mxCell id="yXqzKv2SJQ2WaFODa19P-119" value="Base de Dados" style="rounded=0;whiteSpace=wrap;html=1;" vertex="1" parent="1">
          <mxGeometry x="370" y="480" width="380" height="30" as="geometry" />
        </mxCell>
      </root>
    </mxGraphModel>
  </diagram>
</mxfile>
